<svg width="27" height="27" viewBox="0 0 27 27" fill="none" xmlns="http://www.w3.org/2000/svg">
<rect x="1" y="1" width="25" height="25" fill="white" stroke="black"/>
<path d="M8.32 7.8C9.87733 7.8 11.072 8.09867 11.904 8.696C12.7467 9.28267 13.168 10.1627 13.168 11.336C13.168 11.976 13.0507 12.5253 12.816 12.984C12.592 13.432 12.2613 13.8 11.824 14.088C11.3973 14.3653 10.8747 14.568 10.256 14.696C9.63733 14.824 8.93867 14.888 8.16 14.888H6.928V19H5.376V8.072C5.81333 7.96533 6.29867 7.896 6.832 7.864C7.376 7.82133 7.872 7.8 8.32 7.8ZM8.448 9.16C7.78667 9.16 7.28 9.176 6.928 9.208V13.56H8.096C8.62933 13.56 9.10933 13.528 9.536 13.464C9.96267 13.3893 10.32 13.272 10.608 13.112C10.9067 12.9413 11.136 12.712 11.296 12.424C11.456 12.136 11.536 11.768 11.536 11.32C11.536 10.8933 11.4507 10.5413 11.28 10.264C11.12 9.98667 10.896 9.768 10.608 9.608C10.3307 9.43733 10.0053 9.32 9.632 9.256C9.25867 9.192 8.864 9.16 8.448 9.16ZM20.5344 14.36C20.705 14.5733 20.9184 14.856 21.1744 15.208C21.441 15.5493 21.713 15.9333 21.9904 16.36C22.2677 16.776 22.5397 17.2133 22.8064 17.672C23.0837 18.1307 23.3184 18.5733 23.5104 19H21.8144C21.601 18.5947 21.3664 18.184 21.1104 17.768C20.865 17.352 20.6144 16.9573 20.3584 16.584C20.1024 16.2 19.8464 15.8427 19.5904 15.512C19.345 15.1813 19.121 14.8933 18.9184 14.648C18.7797 14.6587 18.6357 14.664 18.4864 14.664C18.3477 14.664 18.2037 14.664 18.0544 14.664H16.6624V19H15.1104V8.072C15.5477 7.96533 16.033 7.896 16.5664 7.864C17.1104 7.82133 17.6064 7.8 18.0544 7.8C19.6117 7.8 20.7957 8.09333 21.6064 8.68C22.4277 9.26667 22.8384 10.1413 22.8384 11.304C22.8384 12.04 22.641 12.6693 22.2464 13.192C21.8624 13.7147 21.2917 14.104 20.5344 14.36ZM18.1824 9.16C17.521 9.16 17.0144 9.176 16.6624 9.208V13.384H17.7664C18.2997 13.384 18.7797 13.3573 19.2064 13.304C19.633 13.2507 19.9904 13.1493 20.2784 13C20.577 12.8507 20.8064 12.6427 20.9664 12.376C21.1264 12.0987 21.2064 11.736 21.2064 11.288C21.2064 10.872 21.1264 10.5253 20.9664 10.248C20.8064 9.97067 20.5877 9.752 20.3104 9.592C20.0437 9.432 19.7237 9.32 19.3504 9.256C18.9877 9.192 18.5984 9.16 18.1824 9.16Z" fill="black"/>
</svg>
