<svg width="23" height="25" viewBox="0 0 23 25" fill="none" xmlns="http://www.w3.org/2000/svg">
<path d="M9.89101 23.7179C1.56664 13.8442 0.0214844 12.8309 0.0214844 9.20215C0.0214844 4.23157 4.94633 0.202148 11.0215 0.202148C17.0966 0.202148 22.0215 4.23157 22.0215 9.20215C22.0215 12.8309 20.4763 13.8442 12.152 23.7179C11.6057 24.3636 10.4372 24.3635 9.89101 23.7179ZM11.0215 12.9521C13.5528 12.9521 15.6048 11.2732 15.6048 9.20215C15.6048 7.13107 13.5528 5.45215 11.0215 5.45215C8.49017 5.45215 6.43815 7.13107 6.43815 9.20215C6.43815 11.2732 8.49017 12.9521 11.0215 12.9521Z" fill="#FF4975"/>
</svg>
