<svg width="113" height="42" viewBox="0 0 113 42" fill="none" xmlns="http://www.w3.org/2000/svg">
<path d="M63.1 29.52C63.228 29.68 63.388 29.892 63.58 30.156C63.78 30.412 63.984 30.7 64.192 31.02C64.4 31.332 64.604 31.66 64.804 32.004C65.012 32.348 65.188 32.68 65.332 33H64.06C63.9 32.696 63.724 32.388 63.532 32.076C63.348 31.764 63.16 31.468 62.968 31.188C62.776 30.9 62.584 30.632 62.392 30.384C62.208 30.136 62.04 29.92 61.888 29.736C61.784 29.744 61.676 29.748 61.564 29.748C61.46 29.748 61.352 29.748 61.24 29.748H60.196V33H59.032V24.804C59.36 24.724 59.724 24.672 60.124 24.648C60.532 24.616 60.904 24.6 61.24 24.6C62.408 24.6 63.296 24.82 63.904 25.26C64.52 25.7 64.828 26.356 64.828 27.228C64.828 27.78 64.68 28.252 64.384 28.644C64.096 29.036 63.668 29.328 63.1 29.52ZM61.336 25.62C60.84 25.62 60.46 25.632 60.196 25.656V28.788H61.024C61.424 28.788 61.784 28.768 62.104 28.728C62.424 28.688 62.692 28.612 62.908 28.5C63.132 28.388 63.304 28.232 63.424 28.032C63.544 27.824 63.604 27.552 63.604 27.216C63.604 26.904 63.544 26.644 63.424 26.436C63.304 26.228 63.14 26.064 62.932 25.944C62.732 25.824 62.492 25.74 62.212 25.692C61.94 25.644 61.648 25.62 61.336 25.62ZM66.5789 33V24.684H71.6549V25.68H67.7429V28.152H71.2229V29.124H67.7429V32.004H71.9549V33H66.5789ZM77.1663 31.848C77.0863 31.656 76.9783 31.412 76.8423 31.116C76.7143 30.82 76.5743 30.5 76.4223 30.156C76.2703 29.812 76.1063 29.46 75.9303 29.1C75.7623 28.732 75.6023 28.388 75.4503 28.068C75.2983 27.74 75.1543 27.448 75.0183 27.192C74.8903 26.936 74.7863 26.74 74.7063 26.604C74.6183 27.548 74.5463 28.572 74.4903 29.676C74.4343 30.772 74.3863 31.88 74.3463 33H73.2063C73.2383 32.28 73.2743 31.556 73.3143 30.828C73.3543 30.092 73.3983 29.372 73.4463 28.668C73.5023 27.956 73.5583 27.264 73.6143 26.592C73.6783 25.92 73.7463 25.284 73.8183 24.684H74.8383C75.0543 25.036 75.2863 25.452 75.5343 25.932C75.7823 26.412 76.0303 26.916 76.2783 27.444C76.5263 27.964 76.7663 28.488 76.9983 29.016C77.2303 29.536 77.4423 30.012 77.6343 30.444C77.8263 30.012 78.0383 29.536 78.2703 29.016C78.5023 28.488 78.7423 27.964 78.9903 27.444C79.2383 26.916 79.4863 26.412 79.7343 25.932C79.9823 25.452 80.2143 25.036 80.4303 24.684H81.4503C81.7223 27.364 81.9263 30.136 82.0623 33H80.9223C80.8823 31.88 80.8343 30.772 80.7783 29.676C80.7223 28.572 80.6503 27.548 80.5623 26.604C80.4823 26.74 80.3743 26.936 80.2383 27.192C80.1103 27.448 79.9703 27.74 79.8183 28.068C79.6663 28.388 79.5023 28.732 79.3263 29.1C79.1583 29.46 78.9983 29.812 78.8463 30.156C78.6943 30.5 78.5503 30.82 78.4143 31.116C78.2863 31.412 78.1823 31.656 78.1023 31.848H77.1663ZM83.5515 28.836C83.5515 28.124 83.6555 27.496 83.8635 26.952C84.0795 26.408 84.3675 25.956 84.7275 25.596C85.0955 25.228 85.5195 24.952 85.9995 24.768C86.4875 24.584 87.0035 24.492 87.5475 24.492C88.0835 24.492 88.5875 24.584 89.0595 24.768C89.5395 24.952 89.9595 25.228 90.3195 25.596C90.6795 25.956 90.9635 26.408 91.1715 26.952C91.3875 27.496 91.4955 28.124 91.4955 28.836C91.4955 29.548 91.3875 30.176 91.1715 30.72C90.9635 31.264 90.6795 31.72 90.3195 32.088C89.9595 32.448 89.5395 32.72 89.0595 32.904C88.5875 33.088 88.0835 33.18 87.5475 33.18C87.0035 33.18 86.4875 33.088 85.9995 32.904C85.5195 32.72 85.0955 32.448 84.7275 32.088C84.3675 31.72 84.0795 31.264 83.8635 30.72C83.6555 30.176 83.5515 29.548 83.5515 28.836ZM84.7755 28.836C84.7755 29.34 84.8395 29.8 84.9675 30.216C85.0955 30.624 85.2755 30.972 85.5075 31.26C85.7475 31.548 86.0355 31.772 86.3715 31.932C86.7155 32.084 87.0995 32.16 87.5235 32.16C87.9475 32.16 88.3275 32.084 88.6635 31.932C88.9995 31.772 89.2835 31.548 89.5155 31.26C89.7555 30.972 89.9395 30.624 90.0675 30.216C90.1955 29.8 90.2595 29.34 90.2595 28.836C90.2595 28.332 90.1955 27.876 90.0675 27.468C89.9395 27.052 89.7555 26.7 89.5155 26.412C89.2835 26.124 88.9995 25.904 88.6635 25.752C88.3275 25.592 87.9475 25.512 87.5235 25.512C87.0995 25.512 86.7155 25.592 86.3715 25.752C86.0355 25.904 85.7475 26.124 85.5075 26.412C85.2755 26.7 85.0955 27.052 84.9675 27.468C84.8395 27.876 84.7755 28.332 84.7755 28.836ZM98.9273 33C98.7513 32.704 98.5473 32.372 98.3153 32.004C98.0913 31.636 97.8473 31.256 97.5833 30.864C97.3193 30.464 97.0433 30.06 96.7553 29.652C96.4753 29.244 96.1953 28.852 95.9153 28.476C95.6353 28.092 95.3633 27.732 95.0993 27.396C94.8353 27.06 94.5913 26.764 94.3673 26.508V33H93.2273V24.684H94.1513C94.5273 25.084 94.9273 25.552 95.3513 26.088C95.7833 26.616 96.2073 27.164 96.6233 27.732C97.0473 28.292 97.4433 28.844 97.8113 29.388C98.1873 29.932 98.5033 30.416 98.7593 30.84V24.684H99.8993V33H98.9273ZM107.514 24.684V25.692H104.898V33H103.734V25.692H101.118V24.684H107.514Z" fill="white"/>
<path d="M61.24 7.6C62.408 7.6 63.304 7.824 63.928 8.272C64.56 8.712 64.876 9.372 64.876 10.252C64.876 10.732 64.788 11.144 64.612 11.488C64.444 11.824 64.196 12.1 63.868 12.316C63.548 12.524 63.156 12.676 62.692 12.772C62.228 12.868 61.704 12.916 61.12 12.916H60.196V16H59.032V7.804C59.36 7.724 59.724 7.672 60.124 7.648C60.532 7.616 60.904 7.6 61.24 7.6ZM61.336 8.62C60.84 8.62 60.46 8.632 60.196 8.656V11.92H61.072C61.472 11.92 61.832 11.896 62.152 11.848C62.472 11.792 62.74 11.704 62.956 11.584C63.18 11.456 63.352 11.284 63.472 11.068C63.592 10.852 63.652 10.576 63.652 10.24C63.652 9.92 63.588 9.656 63.46 9.448C63.34 9.24 63.172 9.076 62.956 8.956C62.748 8.828 62.504 8.74 62.224 8.692C61.944 8.644 61.648 8.62 61.336 8.62ZM65.9968 11.836C65.9968 11.124 66.1008 10.496 66.3088 9.952C66.5248 9.408 66.8128 8.956 67.1728 8.596C67.5408 8.228 67.9648 7.952 68.4448 7.768C68.9328 7.584 69.4488 7.492 69.9928 7.492C70.5288 7.492 71.0328 7.584 71.5048 7.768C71.9848 7.952 72.4048 8.228 72.7648 8.596C73.1248 8.956 73.4088 9.408 73.6168 9.952C73.8328 10.496 73.9408 11.124 73.9408 11.836C73.9408 12.548 73.8328 13.176 73.6168 13.72C73.4088 14.264 73.1248 14.72 72.7648 15.088C72.4048 15.448 71.9848 15.72 71.5048 15.904C71.0328 16.088 70.5288 16.18 69.9928 16.18C69.4488 16.18 68.9328 16.088 68.4448 15.904C67.9648 15.72 67.5408 15.448 67.1728 15.088C66.8128 14.72 66.5248 14.264 66.3088 13.72C66.1008 13.176 65.9968 12.548 65.9968 11.836ZM67.2208 11.836C67.2208 12.34 67.2848 12.8 67.4128 13.216C67.5408 13.624 67.7208 13.972 67.9528 14.26C68.1928 14.548 68.4808 14.772 68.8168 14.932C69.1608 15.084 69.5448 15.16 69.9688 15.16C70.3928 15.16 70.7728 15.084 71.1088 14.932C71.4448 14.772 71.7288 14.548 71.9608 14.26C72.2008 13.972 72.3848 13.624 72.5128 13.216C72.6408 12.8 72.7048 12.34 72.7048 11.836C72.7048 11.332 72.6408 10.876 72.5128 10.468C72.3848 10.052 72.2008 9.7 71.9608 9.412C71.7288 9.124 71.4448 8.904 71.1088 8.752C70.7728 8.592 70.3928 8.512 69.9688 8.512C69.5448 8.512 69.1608 8.592 68.8168 8.752C68.4808 8.904 68.1928 9.124 67.9528 9.412C67.7208 9.7 67.5408 10.052 67.4128 10.468C67.2848 10.876 67.2208 11.332 67.2208 11.836ZM79.4046 14.848C79.3246 14.656 79.2166 14.412 79.0806 14.116C78.9526 13.82 78.8126 13.5 78.6606 13.156C78.5086 12.812 78.3446 12.46 78.1686 12.1C78.0006 11.732 77.8406 11.388 77.6886 11.068C77.5366 10.74 77.3926 10.448 77.2566 10.192C77.1286 9.936 77.0246 9.74 76.9446 9.604C76.8566 10.548 76.7846 11.572 76.7286 12.676C76.6726 13.772 76.6246 14.88 76.5846 16H75.4446C75.4766 15.28 75.5126 14.556 75.5526 13.828C75.5926 13.092 75.6366 12.372 75.6846 11.668C75.7406 10.956 75.7966 10.264 75.8526 9.592C75.9166 8.92 75.9846 8.284 76.0566 7.684H77.0766C77.2926 8.036 77.5246 8.452 77.7726 8.932C78.0206 9.412 78.2686 9.916 78.5166 10.444C78.7646 10.964 79.0046 11.488 79.2366 12.016C79.4686 12.536 79.6806 13.012 79.8726 13.444C80.0646 13.012 80.2766 12.536 80.5086 12.016C80.7406 11.488 80.9806 10.964 81.2286 10.444C81.4766 9.916 81.7246 9.412 81.9726 8.932C82.2206 8.452 82.4526 8.036 82.6686 7.684H83.6886C83.9606 10.364 84.1646 13.136 84.3006 16H83.1606C83.1206 14.88 83.0726 13.772 83.0166 12.676C82.9606 11.572 82.8886 10.548 82.8006 9.604C82.7206 9.74 82.6126 9.936 82.4766 10.192C82.3486 10.448 82.2086 10.74 82.0566 11.068C81.9046 11.388 81.7406 11.732 81.5646 12.1C81.3966 12.46 81.2366 12.812 81.0846 13.156C80.9326 13.5 80.7886 13.82 80.6526 14.116C80.5246 14.412 80.4206 14.656 80.3406 14.848H79.4046ZM85.7898 11.836C85.7898 11.124 85.8938 10.496 86.1018 9.952C86.3178 9.408 86.6058 8.956 86.9658 8.596C87.3338 8.228 87.7578 7.952 88.2378 7.768C88.7258 7.584 89.2418 7.492 89.7858 7.492C90.3218 7.492 90.8258 7.584 91.2978 7.768C91.7778 7.952 92.1978 8.228 92.5578 8.596C92.9178 8.956 93.2018 9.408 93.4098 9.952C93.6258 10.496 93.7338 11.124 93.7338 11.836C93.7338 12.548 93.6258 13.176 93.4098 13.72C93.2018 14.264 92.9178 14.72 92.5578 15.088C92.1978 15.448 91.7778 15.72 91.2978 15.904C90.8258 16.088 90.3218 16.18 89.7858 16.18C89.2418 16.18 88.7258 16.088 88.2378 15.904C87.7578 15.72 87.3338 15.448 86.9658 15.088C86.6058 14.72 86.3178 14.264 86.1018 13.72C85.8938 13.176 85.7898 12.548 85.7898 11.836ZM87.0138 11.836C87.0138 12.34 87.0778 12.8 87.2058 13.216C87.3338 13.624 87.5138 13.972 87.7458 14.26C87.9858 14.548 88.2738 14.772 88.6098 14.932C88.9538 15.084 89.3378 15.16 89.7618 15.16C90.1858 15.16 90.5658 15.084 90.9018 14.932C91.2378 14.772 91.5218 14.548 91.7538 14.26C91.9938 13.972 92.1778 13.624 92.3058 13.216C92.4338 12.8 92.4978 12.34 92.4978 11.836C92.4978 11.332 92.4338 10.876 92.3058 10.468C92.1778 10.052 91.9938 9.7 91.7538 9.412C91.5218 9.124 91.2378 8.904 90.9018 8.752C90.5658 8.592 90.1858 8.512 89.7618 8.512C89.3378 8.512 88.9538 8.592 88.6098 8.752C88.2738 8.904 87.9858 9.124 87.7458 9.412C87.5138 9.7 87.3338 10.052 87.2058 10.468C87.0778 10.876 87.0138 11.332 87.0138 11.836ZM99.5336 12.52C99.6616 12.68 99.8216 12.892 100.014 13.156C100.214 13.412 100.418 13.7 100.626 14.02C100.834 14.332 101.038 14.66 101.238 15.004C101.446 15.348 101.622 15.68 101.766 16H100.494C100.334 15.696 100.158 15.388 99.9656 15.076C99.7816 14.764 99.5936 14.468 99.4016 14.188C99.2096 13.9 99.0176 13.632 98.8256 13.384C98.6416 13.136 98.4736 12.92 98.3216 12.736C98.2176 12.744 98.1096 12.748 97.9976 12.748C97.8936 12.748 97.7856 12.748 97.6736 12.748H96.6296V16H95.4656V7.804C95.7936 7.724 96.1576 7.672 96.5576 7.648C96.9656 7.616 97.3376 7.6 97.6736 7.6C98.8416 7.6 99.7296 7.82 100.338 8.26C100.954 8.7 101.262 9.356 101.262 10.228C101.262 10.78 101.114 11.252 100.818 11.644C100.53 12.036 100.102 12.328 99.5336 12.52ZM97.7696 8.62C97.2736 8.62 96.8936 8.632 96.6296 8.656V11.788H97.4576C97.8576 11.788 98.2176 11.768 98.5376 11.728C98.8576 11.688 99.1256 11.612 99.3416 11.5C99.5656 11.388 99.7376 11.232 99.8576 11.032C99.9776 10.824 100.038 10.552 100.038 10.216C100.038 9.904 99.9776 9.644 99.8576 9.436C99.7376 9.228 99.5736 9.064 99.3656 8.944C99.1656 8.824 98.9256 8.74 98.6456 8.692C98.3736 8.644 98.0816 8.62 97.7696 8.62Z" fill="white"/>
<path d="M14.184 15.382C16.044 15.382 17.472 15.712 18.468 16.372C19.464 17.02 19.962 18.088 19.962 19.576C19.962 21.076 19.458 22.162 18.45 22.834C17.442 23.494 16.002 23.824 14.13 23.824H13.248V28H10.44V15.706C11.052 15.586 11.7 15.502 12.384 15.454C13.068 15.406 13.668 15.382 14.184 15.382ZM14.364 17.776C14.16 17.776 13.956 17.782 13.752 17.794C13.56 17.806 13.392 17.818 13.248 17.83V21.43H14.13C15.102 21.43 15.834 21.298 16.326 21.034C16.818 20.77 17.064 20.278 17.064 19.558C17.064 19.21 16.998 18.922 16.866 18.694C16.746 18.466 16.566 18.286 16.326 18.154C16.098 18.01 15.816 17.914 15.48 17.866C15.144 17.806 14.772 17.776 14.364 17.776Z" fill="white"/>
<path d="M26.094 15.382C27.966 15.382 29.4 15.718 30.396 16.39C31.392 17.05 31.89 18.082 31.89 19.486C31.89 20.362 31.686 21.076 31.278 21.628C30.882 22.168 30.306 22.594 29.55 22.906C29.802 23.218 30.066 23.578 30.342 23.986C30.618 24.382 30.888 24.802 31.152 25.246C31.428 25.678 31.692 26.134 31.944 26.614C32.196 27.082 32.43 27.544 32.646 28H29.496C29.268 27.592 29.034 27.178 28.794 26.758C28.566 26.338 28.326 25.93 28.074 25.534C27.834 25.138 27.594 24.766 27.354 24.418C27.114 24.058 26.874 23.734 26.634 23.446H25.248V28H22.44V15.706C23.052 15.586 23.682 15.502 24.33 15.454C24.99 15.406 25.578 15.382 26.094 15.382ZM26.256 17.776C26.052 17.776 25.866 17.782 25.698 17.794C25.542 17.806 25.392 17.818 25.248 17.83V21.214H26.04C27.096 21.214 27.852 21.082 28.308 20.818C28.764 20.554 28.992 20.104 28.992 19.468C28.992 18.856 28.758 18.424 28.29 18.172C27.834 17.908 27.156 17.776 26.256 17.776Z" fill="#FAF8F8"/>
<rect x="1" y="1" width="40" height="40" stroke="#FFFCFC" stroke-width="2"/>
</svg>
