<svg width="23" height="19" viewBox="0 0 23 19" fill="none" xmlns="http://www.w3.org/2000/svg">
<path d="M21.6086 6.85879C21.7762 6.71348 22.0254 6.84941 22.0254 7.0791V16.665C22.0254 17.9072 21.1016 18.915 19.9629 18.915H2.08789C0.949219 18.915 0.0253906 17.9072 0.0253906 16.665V7.08379C0.0253906 6.84941 0.270312 6.71816 0.442187 6.86348C1.40469 7.6791 2.68086 8.71504 7.06367 12.1885C7.97031 12.9104 9.5 14.4291 11.0254 14.4197C12.5594 14.4338 14.1191 12.8822 14.9914 12.1885C19.3742 8.71504 20.6461 7.67441 21.6086 6.85879ZM11.0254 12.915C12.0223 12.9338 13.4574 11.5463 14.1793 10.9744C19.8812 6.46035 20.3152 6.0666 21.6301 4.9416C21.8793 4.73066 22.0254 4.40254 22.0254 4.05566V3.16504C22.0254 1.92285 21.1016 0.915039 19.9629 0.915039H2.08789C0.949219 0.915039 0.0253906 1.92285 0.0253906 3.16504V4.05566C0.0253906 4.40254 0.171484 4.72598 0.420703 4.9416C1.73555 6.06191 2.16953 6.46035 7.87148 10.9744C8.59336 11.5463 10.0285 12.9338 11.0254 12.915Z" fill="#FF4975"/>
</svg>
