<svg width="23" height="25" viewBox="0 0 23 25" fill="none" xmlns="http://www.w3.org/2000/svg">
<path d="M21.6066 17.5791L16.7941 15.3291C16.5885 15.2335 16.36 15.2133 16.143 15.2717C15.9261 15.33 15.7323 15.4637 15.591 15.6525L13.4597 18.4931C10.1149 16.7727 7.42313 13.8362 5.84609 10.1873L8.45 7.86235C8.62346 7.70845 8.74622 7.49709 8.79972 7.26026C8.85322 7.02344 8.83453 6.77405 8.74648 6.54985L6.68398 1.29985C6.58735 1.05816 6.41645 0.860838 6.20074 0.741895C5.98503 0.622951 5.73803 0.589845 5.50234 0.648286L1.03359 1.77329C0.806362 1.83053 0.603625 1.9701 0.458472 2.16923C0.313319 2.36836 0.234323 2.61528 0.234375 2.86969C0.234375 14.8931 9.16758 24.6197 20.1719 24.6197C20.4052 24.6199 20.6316 24.5337 20.8142 24.3754C20.9968 24.217 21.1249 23.9958 21.1773 23.7478L22.2086 18.8728C22.2618 18.6145 22.2308 18.3439 22.121 18.1078C22.0111 17.8717 21.8292 17.6847 21.6066 17.5791V17.5791Z" fill="white"/>
</svg>
