<svg width="23" height="25" viewBox="0 0 23 25" fill="none" xmlns="http://www.w3.org/2000/svg">
<path d="M21.8605 17.1918L17.048 14.9418C16.8424 14.8463 16.6139 14.8261 16.397 14.8845C16.18 14.9428 15.9862 15.0764 15.8449 15.2653L13.7136 18.1059C10.3688 16.3855 7.67704 13.449 6.1 9.80013L8.70391 7.47513C8.87736 7.32123 9.00013 7.10987 9.05363 6.87305C9.10712 6.63622 9.08844 6.38683 9.00039 6.16263L6.93789 0.912641C6.84126 0.670957 6.67035 0.473631 6.45464 0.354687C6.23893 0.235744 5.99194 0.202638 5.75625 0.261079L1.2875 1.38608C1.06027 1.44332 0.857531 1.5829 0.712378 1.78202C0.567226 1.98115 0.488229 2.22807 0.488281 2.48248C0.488281 14.5059 9.42148 24.2325 20.4258 24.2325C20.6591 24.2326 20.8855 24.1465 21.0681 23.9881C21.2508 23.8298 21.3788 23.6085 21.4312 23.3606L22.4625 18.4856C22.5157 18.2272 22.4847 17.9567 22.3749 17.7206C22.265 17.4844 22.0831 17.2975 21.8605 17.1918V17.1918Z" fill="#FF4975"/>
</svg>
