<svg width="23" height="24" viewBox="0 0 23 24" fill="none" xmlns="http://www.w3.org/2000/svg">
<path d="M11.0215 0.577148C4.94487 0.577148 0.0214844 5.78027 0.0214844 12.2021C0.0214844 18.624 4.94487 23.8271 11.0215 23.8271C17.0981 23.8271 22.0215 18.624 22.0215 12.2021C22.0215 5.78027 17.0981 0.577148 11.0215 0.577148ZM16.4239 8.54121L14.6187 17.5318C14.4856 18.1693 14.1263 18.324 13.6251 18.024L10.8751 15.8818L9.5489 17.2318C9.40253 17.3865 9.27834 17.5178 8.99447 17.5178L9.18963 14.56L14.286 9.69434C14.5078 9.48809 14.2372 9.3709 13.9445 9.57715L7.64608 13.7678L4.93156 12.8725C4.34165 12.6756 4.32834 12.249 5.05576 11.949L15.661 7.62715C16.1533 7.43965 16.5836 7.75371 16.4239 8.54121Z" fill="#FF4975"/>
</svg>
